<svg width="16" height="18" fill="none" xmlns="http://www.w3.org/2000/svg"><path fill-rule="evenodd" clip-rule="evenodd" d="M2.75 3.75A.75.75 0 002 4.5V15c0 .414.336.75.75.75h10.5A.75.75 0 0014 15V4.5a.75.75 0 00-.75-.75H2.75zM.5 4.5a2.25 2.25 0 012.25-2.25h10.5A2.25 2.25 0 0115.5 4.5V15a2.25 2.25 0 01-2.25 2.25H2.75A2.25 2.25 0 01.5 15V4.5z" fill="#333"/><path fill-rule="evenodd" clip-rule="evenodd" d="M11 .75a.75.75 0 01.75.75v3a.75.75 0 01-1.5 0v-3A.75.75 0 0111 .75zM5 .75a.75.75 0 01.75.75v3a.75.75 0 01-1.5 0v-3A.75.75 0 015 .75zM.5 7.5a.75.75 0 01.75-.75h13.5a.75.75 0 010 1.5H1.25A.75.75 0 01.5 7.5z" fill="#333"/></svg>