<?xml version="1.0" standalone="no"?>
<!DOCTYPE svg PUBLIC "-//W3C//DTD SVG 20010904//EN"
 "http://www.w3.org/TR/2001/REC-SVG-20010904/DTD/svg10.dtd">
<svg version="1.0" xmlns="http://www.w3.org/2000/svg"
 width="120.000000pt" height="116.000000pt" viewBox="0 0 120.000000 116.000000"
 preserveAspectRatio="xMidYMid meet">
<metadata>
Created by potrace 1.16, written by Peter Selinger 2001-2019
</metadata>
<g transform="translate(0.000000,116.000000) scale(0.100000,-0.100000)"
fill="#000000" stroke="none">
<path d="M475 1150 c-3 -5 -21 -10 -39 -10 -72 0 -115 -89 -206 -432 -17 -64
-42 -148 -55 -185 -35 -102 -41 -161 -20 -226 24 -78 20 -91 -36 -95 l-46 -3
-7 50 c-7 50 -33 80 -56 66 -6 -4 -10 -71 -10 -161 l0 -154 140 0 c104 0 142
3 144 13 45 163 76 377 76 519 0 82 20 174 50 227 11 20 23 -6 44 -90 18 -73
20 -109 7 -109 -14 0 -2 -309 15 -423 8 -53 12 -106 9 -117 -6 -20 -1 -20 354
-20 l361 0 0 544 c0 373 -3 547 -11 551 -6 4 -7 19 -4 36 l7 29 -151 0 -150 0
-5 -32 c-3 -18 -7 -77 -10 -130 -2 -53 -9 -105 -15 -115 -9 -15 -10 -15 -11
-2 0 9 -9 24 -20 34 -11 10 -33 42 -50 71 -40 71 -87 116 -154 148 -56 27
-139 35 -151 16z m213 -211 c8 -19 18 -36 23 -39 4 -3 -5 -21 -21 -40 -37 -43
-37 -50 -3 -107 26 -44 26 -46 8 -59 -17 -12 -17 -14 -2 -14 33 0 16 -29 -25
-43 l-43 -15 39 -1 c33 -1 37 -3 26 -16 -10 -13 -9 -15 11 -16 13 -1 27 -1 31
0 21 3 -8 -29 -34 -38 -24 -9 -39 -7 -72 8 -50 22 -79 49 -72 67 3 8 0 14 -7
14 -7 0 -21 13 -30 30 -25 41 -9 68 44 76 21 4 42 10 45 15 3 5 -2 6 -10 3 -9
-3 -16 -1 -16 5 0 6 8 11 18 11 25 0 34 11 22 26 -7 8 -25 10 -51 7 -50 -7
-58 3 -52 65 7 66 43 97 109 96 45 -1 49 -4 62 -35z"/>
</g>
</svg>
