<?xml version="1.0" standalone="no"?>
<!DOCTYPE svg PUBLIC "-//W3C//DTD SVG 20010904//EN"
 "http://www.w3.org/TR/2001/REC-SVG-20010904/DTD/svg10.dtd">
<svg version="1.0" xmlns="http://www.w3.org/2000/svg"
 width="120.000000pt" height="115.000000pt" viewBox="0 0 120.000000 115.000000"
 preserveAspectRatio="xMidYMid meet">
<metadata>
Created by potrace 1.16, written by Peter Selinger 2001-2019
</metadata>
<g transform="translate(0.000000,115.000000) scale(0.100000,-0.100000)"
fill="#000000" stroke="none">
<path d="M515 1112 c-133 -46 -174 -98 -198 -255 -2 -15 0 -46 5 -70 5 -23 9
-80 10 -127 0 -47 2 -69 4 -50 12 110 15 122 31 116 12 -5 13 -3 6 6 -19 24
-22 61 -7 89 7 15 14 44 14 64 0 43 23 92 47 99 54 15 86 15 151 1 41 -8 107
-15 148 -15 104 0 117 -14 134 -142 7 -53 9 -101 6 -107 -4 -6 -1 -11 6 -11 8
0 9 -3 3 -8 -6 -4 -11 -27 -10 -52 0 -68 -59 -243 -75 -222 -13 17 -28 9 -34
-19 -4 -22 -14 -34 -36 -42 -17 -6 -29 -16 -26 -22 2 -6 -9 -24 -25 -39 -18
-19 -29 -24 -29 -15 -1 9 -7 6 -20 -9 -17 -20 -25 -23 -59 -17 -42 7 -77 35
-53 42 6 3 12 9 12 15 0 6 -7 4 -17 -3 -13 -11 -17 -11 -20 -1 -3 6 -12 12
-20 12 -13 0 -13 2 -2 17 13 15 12 15 -8 5 -19 -10 -20 -9 -16 8 3 12 0 20 -7
20 -12 0 -40 24 -40 35 0 4 -7 13 -15 21 -8 9 -15 13 -15 9 0 -5 26 -48 42
-70 5 -5 23 -32 41 -59 43 -66 98 -89 172 -71 71 16 112 38 174 93 53 47 53
47 61 122 5 41 13 91 19 110 5 19 13 60 16 90 4 30 11 57 16 61 11 7 29 100
29 152 0 47 -19 108 -37 120 -7 4 -13 14 -13 20 0 20 -83 82 -124 93 -14 3
-29 10 -32 15 -9 15 -156 9 -209 -9z"/>
<path d="M860 318 c0 -7 -28 -47 -61 -88 -61 -74 -125 -164 -148 -207 l-12
-23 281 0 280 0 0 50 c0 42 -3 50 -18 50 -22 0 -144 72 -190 112 -18 15 -39
28 -46 28 -8 0 -27 20 -43 45 -28 45 -43 56 -43 33z"/>
<path d="M360 200 c-30 -10 -67 -21 -82 -24 -39 -9 -88 -54 -109 -101 -34 -73
-32 -75 80 -75 l99 0 32 62 c26 52 53 160 39 157 -2 0 -29 -9 -59 -19z"/>
</g>
</svg>
