<svg width="34" height="34" fill="none" xmlns="http://www.w3.org/2000/svg"><g clip-path="url(#clip0)" fill-rule="evenodd" clip-rule="evenodd" fill="#000"><path d="M7 31a2 2 0 114 0 2 2 0 01-4 0zM18 31a2 2 0 114 0 2 2 0 01-4 0zM0 11a1 1 0 011-1h4a1 1 0 01.98.804L6.82 15H23a1 1 0 01.982 1.187l-1.601 8.398A3 3 0 0119.39 27H9.69a3 3 0 01-2.99-2.414l-1.67-8.347a.997.997 0 01-.017-.084L4.18 12H1a1 1 0 01-1-1zm7.22 6l1.44 7.195a1 1 0 001 .805h9.76a1 1 0 00.998-.802L21.792 17H7.221z"/></g><circle cx="24" cy="10" r="10" fill="#EC1F46"/><path d="M26.45 12.15V13h-4.67v-.77l2.45-2.69c.313-.347.54-.66.68-.94.147-.287.22-.57.22-.85 0-.36-.103-.633-.31-.82-.207-.193-.507-.29-.9-.29-.66 0-1.32.26-1.98.78l-.37-.76c.28-.26.637-.467 1.07-.62.433-.16.87-.24 1.31-.24.68 0 1.217.17 1.61.51.4.34.6.8.6 1.38 0 .413-.09.807-.27 1.18-.18.367-.48.777-.9 1.23l-1.9 2.05h3.36z" fill="#fff"/><defs><clipPath id="clip0"><path fill="#fff" transform="translate(0 10)" d="M0 0h24v24H0z"/></clipPath></defs></svg>