<?xml version="1.0" standalone="no"?>
<!DOCTYPE svg PUBLIC "-//W3C//DTD SVG 20010904//EN"
 "http://www.w3.org/TR/2001/REC-SVG-20010904/DTD/svg10.dtd">
<svg version="1.0" xmlns="http://www.w3.org/2000/svg"
 width="120.000000pt" height="118.000000pt" viewBox="0 0 120.000000 118.000000"
 preserveAspectRatio="xMidYMid meet">
<metadata>
Created by potrace 1.16, written by Peter Selinger 2001-2019
</metadata>
<g transform="translate(0.000000,118.000000) scale(0.100000,-0.100000)"
fill="#000000" stroke="none">
<path d="M289 1166 c6 -7 25 -16 41 -20 39 -7 53 -41 36 -89 -6 -19 -17 -42
-24 -50 -7 -8 -14 -26 -14 -39 -1 -13 -8 -32 -15 -43 -7 -11 -13 -30 -13 -42
0 -16 -8 -24 -27 -29 -45 -11 -58 -25 -37 -41 18 -13 18 -15 0 -47 -10 -19
-30 -39 -45 -45 -37 -14 -130 -20 -163 -10 -23 6 -28 5 -28 -11 0 -10 9 -20
19 -23 12 -3 24 -20 32 -46 7 -23 21 -47 31 -52 41 -22 9 -119 -39 -119 -13 0
-21 4 -18 10 3 6 -1 10 -9 10 -14 0 -16 -29 -16 -240 l0 -240 600 0 600 0 0
590 0 590 -461 0 c-391 0 -460 -2 -450 -14z m729 -22 c19 -13 22 -21 16 -50
-5 -29 -3 -35 18 -43 31 -12 50 -35 47 -58 -1 -10 7 -38 19 -63 17 -38 20 -64
20 -175 -1 -158 -12 -191 -61 -180 -18 4 -74 7 -124 8 l-93 2 0 -41 c0 -40 1
-42 38 -48 20 -3 56 -6 78 -6 26 0 47 -6 55 -16 33 -40 -54 -53 -178 -28 -22
4 -33 2 -33 -5 0 -7 -9 -21 -20 -33 -11 -12 -20 -29 -20 -37 0 -10 7 -6 18 12
23 37 36 34 29 -8 -3 -19 -1 -50 4 -70 9 -32 7 -41 -22 -88 -34 -55 -47 -68
-93 -93 -21 -11 -31 -13 -36 -5 -4 8 -21 9 -47 5 -37 -6 -44 -3 -80 30 -22 19
-53 54 -69 77 -25 36 -28 51 -31 127 -2 83 -22 169 -36 156 -3 -3 -2 -17 4
-31 13 -34 12 -35 -14 -22 -19 11 -20 10 -10 -3 7 -8 10 -18 6 -21 -3 -4 -1
-13 6 -20 9 -12 5 -17 -19 -27 -36 -15 -72 -3 -89 28 -9 16 -6 23 14 36 13 9
29 16 36 16 6 0 8 7 5 16 -4 9 -1 23 6 31 9 11 9 26 0 61 -6 26 -13 60 -17 76
l-6 29 27 -18 c26 -17 27 -17 22 2 -3 10 -2 42 2 71 3 28 3 53 -1 54 -12 4
-15 63 -4 66 6 2 18 11 28 19 16 15 17 15 17 -1 0 -16 3 -15 29 3 16 11 53 26
82 32 30 6 71 20 91 30 42 21 73 24 91 8 7 -5 27 -19 45 -29 29 -18 32 -24 32
-66 0 -25 7 -58 15 -72 8 -15 20 -40 27 -57 11 -28 12 -28 15 -7 3 12 9 22 14
22 5 0 9 29 9 65 0 36 4 65 9 65 4 0 11 32 15 72 5 61 3 77 -14 111 -13 24
-19 49 -16 63 5 20 11 22 41 17 24 -4 39 -1 50 11 20 20 25 20 53 0z"/>
</g>
</svg>
